<svg xmlns="http://www.w3.org/2000/svg" xmlns:xlink="http://www.w3.org/1999/xlink" id="exportSvg" width="600" height="400"><defs/><rect width="600" height="400" transform="translate(0, 0)" fill="rgb(255, 255, 255)" style="fill: rgb(255, 255, 255);"/><g><g id="__svelte-dw-svg"><text transform="translate(0, 0)"><tspan fill="rgb(0,0,0)" x="0" y="22" style="font-family: Roboto; font-weight: 700; font-stretch: 100%; font-size: 22px;">Abortion</tspan><tspan fill="rgb(24,24,24)" x="0" y="49" style="font-family: Roboto; font-weight: 400; font-stretch: 100%; font-size: 14px;">% of voters who say abortion is 'very important' to their vote in the upcoming election</tspan></text><g id="chart-svg"><g id="svg-main-svg" clip-path="url(#rect-mask-Jnbr7gvLOdViW_6hD87_A)" transform="translate(0, 62)"><clipPath id="rect-mask-Jnbr7gvLOdViW_6hD87_A"><rect x="0" y="0" width="600" height="305"/></clipPath><g id="group-svg" transform="translate(0, 49)"><g id="x-grid-svg"/><g id="y-grid-svg"><g id="y-grid-lines-svg grid-y-svg datawrapper-tO9wE-1fn7900-svg"><line x1="0" x2="593.1326942443848" y1="0" y2="0" style="fill: none; stroke-width: 1; stroke-linejoin: miter; stroke-linecap: butt; stroke: rgb(231, 231, 231);"/><line x1="0" x2="593.1326942443848" y1="0" y2="0" transform="translate(0, 29.5)" style="fill: none; stroke-width: 1; stroke-linejoin: miter; stroke-linecap: butt; stroke: rgb(231, 231, 231);"/><line x1="0" x2="593.1326942443848" y1="0" y2="0" transform="translate(0, 59)" style="fill: none; stroke-width: 1; stroke-linejoin: miter; stroke-linecap: butt; stroke: rgb(231, 231, 231);"/><line x1="0" x2="593.1326942443848" y1="0" y2="0" transform="translate(0, 88.5)" style="fill: none; stroke-width: 1; stroke-linejoin: miter; stroke-linecap: butt; stroke: rgb(231, 231, 231);"/><line x1="0" x2="593.1326942443848" y1="0" y2="0" transform="translate(0, 118)" style="fill: none; stroke-width: 1; stroke-linejoin: miter; stroke-linecap: butt; stroke: rgb(231, 231, 231);"/><line x1="0" x2="593.1326942443848" y1="0" y2="0" transform="translate(0, 147.5)" style="fill: none; stroke-width: 1; stroke-linejoin: miter; stroke-linecap: butt; stroke: rgb(231, 231, 231);"/><line x1="0" x2="593.1326942443848" y1="0" y2="0" transform="translate(0, 177)" style="fill: none; stroke-width: 1; stroke-linejoin: miter; stroke-linecap: butt; stroke: rgb(231, 231, 231);"/><line x1="0" x2="593.1326942443848" y1="0" y2="0" transform="translate(0, 206.5)" style="fill: none; stroke-width: 1; stroke-linejoin: miter; stroke-linecap: butt; stroke: rgb(231, 231, 231);"/></g></g><g id="lines-svg"><g id="Republican-svg"><path d="M58.858322182164486,100.30000000000001L584.2743720705394,115.05000000000001" stroke="rgb(199,30,29)" id="Republican" style="fill: none; stroke-width: 2; stroke-linejoin: round; stroke-linecap: round; stroke: rgb(199, 30, 29);"/></g><g id="Democrat-svg"><path d="M58.858322182164486,132.75L584.2743720705394,26.55000000000001" stroke="rgb(31,109,156)" id="Democrat" style="fill: none; stroke-width: 2; stroke-linejoin: round; stroke-linecap: round; stroke: rgb(31, 109, 156);"/></g></g><g id="line-symbols-svg"><path d="M1,0A1,1,0,1,1,-1,0A1,1,0,1,1,1,0" id="Republican" transform="translate(58.85832, 100.3) scale(3.5)" style="fill: rgb(199, 30, 29);"/><path d="M1,0A1,1,0,1,1,-1,0A1,1,0,1,1,1,0" id="Republican" transform="translate(584.27437, 115.05) scale(3.5)" style="fill: rgb(199, 30, 29);"/><path d="M1,0A1,1,0,1,1,-1,0A1,1,0,1,1,1,0" id="Democrat" transform="translate(58.85832, 132.75) scale(3.5)" style="fill: rgb(31, 109, 156);"/><path d="M1,0A1,1,0,1,1,-1,0A1,1,0,1,1,1,0" id="Democrat" transform="translate(584.27437, 26.55) scale(3.5)" style="fill: rgb(31, 109, 156);"/></g><g id="x-grid-svg"><g id="x-tick-labels-svg date-axis-svg grid-x-svg datawrapper-tO9wE-63wp0p-svg" transform="translate(0, 241)"><text transform="translate(58.85832, 12) translate(-13.60742, 0) translate(13.607421875, 0)" style="text-anchor: middle;"><tspan fill="rgb(116, 116, 116)" style="font-family: Roboto; font-weight: 400; font-stretch: 100%; font-size: 12px;" x="0" dominant-baseline="auto" y="0">2020</tspan></text><text transform="translate(584.27437, 12) translate(-13.60742, 0) translate(13.607421875, 0)" style="text-anchor: middle;"><tspan fill="rgb(116, 116, 116)" style="font-family: Roboto; font-weight: 400; font-stretch: 100%; font-size: 12px;" x="0" dominant-baseline="auto" y="0">2022</tspan></text></g></g><g id="y-grid-svg"><g id="y-tick-labels-svg number-axis-svg grid-y-svg datawrapper-tO9wE-yhj5g2-svg"><text transform="translate(0, 231) translate(0, 0)"><tspan fill="rgb(162, 162, 162)" style="font-family: Roboto; font-weight: 400; font-stretch: 100%; font-size: 12px;" x="0" dominant-baseline="auto" y="0">0</tspan></text><text transform="translate(0, 201.5) translate(0, 0)"><tspan fill="rgb(162, 162, 162)" style="font-family: Roboto; font-weight: 400; font-stretch: 100%; font-size: 12px;" x="0" dominant-baseline="auto" y="0">10</tspan></text><text transform="translate(0, 172) translate(0, 0)"><tspan fill="rgb(162, 162, 162)" style="font-family: Roboto; font-weight: 400; font-stretch: 100%; font-size: 12px;" x="0" dominant-baseline="auto" y="0">20</tspan></text><text transform="translate(0, 142.5) translate(0, 0)"><tspan fill="rgb(162, 162, 162)" style="font-family: Roboto; font-weight: 400; font-stretch: 100%; font-size: 12px;" x="0" dominant-baseline="auto" y="0">30</tspan></text><text transform="translate(0, 113) translate(0, 0)"><tspan fill="rgb(162, 162, 162)" style="font-family: Roboto; font-weight: 400; font-stretch: 100%; font-size: 12px;" x="0" dominant-baseline="auto" y="0">40</tspan></text><text transform="translate(0, 83.5) translate(0, 0)"><tspan fill="rgb(162, 162, 162)" style="font-family: Roboto; font-weight: 400; font-stretch: 100%; font-size: 12px;" x="0" dominant-baseline="auto" y="0">50</tspan></text><text transform="translate(0, 54) translate(0, 0)"><tspan fill="rgb(162, 162, 162)" style="font-family: Roboto; font-weight: 400; font-stretch: 100%; font-size: 12px;" x="0" dominant-baseline="auto" y="0">60</tspan></text><text transform="translate(0, 24.5) translate(0, 0)"><tspan fill="rgb(162, 162, 162)" style="font-family: Roboto; font-weight: 400; font-stretch: 100%; font-size: 12px;" x="0" dominant-baseline="auto" y="0">70</tspan></text><text transform="translate(0, -5) translate(0, 0)"><tspan fill="rgb(162, 162, 162)" style="font-family: Roboto; font-weight: 400; font-stretch: 100%; font-size: 12px;" x="0" dominant-baseline="auto" y="0">80</tspan></text></g><g id="y-base-lines-svg grid-y-svg datawrapper-tO9wE-1io9s9d-svg"><line x1="593.1326942443848" x2="0" y1="0" y2="0" transform="translate(0, 236)" style="fill: none; stroke-width: 1; stroke-linejoin: miter; stroke-linecap: square; stroke: rgb(24, 24, 24);"/></g></g></g></g><g id="Democrat-svg" clip-path="url(#rect-mask-YMpdV-gbfn9r1Vta2Cp1x)" transform="translate(0, 62)"><clipPath id="rect-mask-YMpdV-gbfn9r1Vta2Cp1x"><rect x="0" y="0" width="16" height="20"/></clipPath><path d="M1,10 L15,10" stroke="rgb(31,109,156)" id="Democrat" style="fill: none; stroke-width: 2; stroke-linejoin: round; stroke-linecap: round; stroke: rgb(31, 109, 156);"/></g><text transform="translate(20, 64.78125)" id="Democrat"><tspan fill="rgb(24,24,24)" x="0" y="12.828125" style="font-family: Roboto; font-weight: 400; font-stretch: 100%; font-size: 12px;">Democrat</tspan></text><g id="Republican-svg" clip-path="url(#rect-mask-n8CWHe3r3IPYBEazv6wuf)" transform="translate(80.15625, 62)"><clipPath id="rect-mask-n8CWHe3r3IPYBEazv6wuf"><rect x="0" y="0" width="16" height="20"/></clipPath><path d="M1,10 L15,10" stroke="rgb(199,30,29)" id="Republican" style="fill: none; stroke-width: 2; stroke-linejoin: round; stroke-linecap: round; stroke: rgb(199, 30, 29);"/></g><text transform="translate(100.15625, 64.78125)" id="Republican"><tspan fill="rgb(24,24,24)" x="0" y="12.828125" style="font-family: Roboto; font-weight: 400; font-stretch: 100%; font-size: 12px;">Republican</tspan></text><text transform="translate(51, 250)"><tspan fill="rgb(29,129,162)" x="0" y="12" style="font-family: Roboto; font-weight: 400; font-stretch: 100%; font-size: 12px;">35</tspan></text><text transform="translate(576, 121)"><tspan fill="rgb(29,129,162)" x="0" y="12" style="font-family: Roboto; font-weight: 400; font-stretch: 100%; font-size: 12px;">71</tspan></text><text transform="translate(51, 193)"><tspan fill="rgb(199,30,29)" x="0" y="12" style="font-family: Roboto; font-weight: 400; font-stretch: 100%; font-size: 12px;">46</tspan></text><text transform="translate(578, 233)"><tspan fill="rgb(199,30,29)" x="0" y="12" style="font-family: Roboto; font-weight: 400; font-stretch: 100%; font-size: 12px;">41</tspan></text><g id="tooltip-layer-svg" clip-path="url(#rect-mask-NmfNw-KLtFXnyvjpYp2hq)" transform="translate(0, 62)"><clipPath id="rect-mask-NmfNw-KLtFXnyvjpYp2hq"><rect x="0" y="0" width="600" height="305"/></clipPath><g id="group-svg" transform="translate(0, 49)"/></g></g><text transform="translate(0, 387)"><tspan fill="rgb(136,136,136)" x="0" y="11" style="font-family: Roboto; font-weight: 400; font-stretch: 100%; font-size: 11px;">Source:</tspan><tspan fill="rgb(136,136,136)" dx="2.734375" style="font-family: Roboto; font-weight: 400; font-stretch: 100%; font-size: 11px;">Pew Research Center</tspan><tspan fill="rgb(136,136,136)" dx="2.739" style="font-family: Roboto; font-weight: 400; font-stretch: 100%; font-size: 11px;">•</tspan><tspan fill="rgb(136,136,136)" dx="2.739" style="font-family: Roboto; font-weight: 400; font-stretch: 100%; font-size: 11px;">Created with</tspan><tspan fill="rgb(136,136,136)" dx="2.734375" style="font-family: Roboto; font-weight: 400; font-stretch: 100%; font-size: 11px;">Datawrapper</tspan></text></g></g></svg>