<svg xmlns="http://www.w3.org/2000/svg" xmlns:xlink="http://www.w3.org/1999/xlink" id="exportSvg" width="596" height="429"><defs/><rect width="596" height="429" transform="translate(0, 0)" fill="rgb(255, 255, 255)" style="fill: rgb(255, 255, 255);"/><g><g id="__svelte-dw-svg"><text transform="translate(0, 0)"><tspan fill="rgb(0,0,0)" x="0" y="22" style="font-family: Roboto; font-weight: 700; font-stretch: 100%; font-size: 22px;">Climate Change</tspan><tspan fill="rgb(24,24,24)" x="0" y="49" style="font-family: Roboto; font-weight: 400; font-stretch: 100%; font-size: 14px;">% of voters who say climate change should be a top priority for the president to address this</tspan><tspan fill="rgb(24,24,24)" x="0" y="66" style="font-family: Roboto; font-weight: 400; font-stretch: 100%; font-size: 14px;">year</tspan></text><g id="chart-svg"><g id="svg-main-svg" clip-path="url(#rect-mask-DAfAr3eRQBYV_ijLb2ztR)" transform="translate(0, 79)"><clipPath id="rect-mask-DAfAr3eRQBYV_ijLb2ztR"><rect x="0" y="0" width="596" height="317"/></clipPath><g id="group-svg" transform="translate(0, 49)"><g id="x-grid-svg"/><g id="y-grid-svg"><g id="y-grid-lines-svg grid-y-svg datawrapper-HbxUz-1fn7900-svg"><line x1="0" x2="589.3870964050293" y1="0" y2="0" style="fill: none; stroke-width: 1; stroke-linejoin: miter; stroke-linecap: butt; stroke: rgb(231, 231, 231);"/><line x1="0" x2="589.3870964050293" y1="0" y2="0" transform="translate(0, 31)" style="fill: none; stroke-width: 1; stroke-linejoin: miter; stroke-linecap: butt; stroke: rgb(231, 231, 231);"/><line x1="0" x2="589.3870964050293" y1="0" y2="0" transform="translate(0, 62)" style="fill: none; stroke-width: 1; stroke-linejoin: miter; stroke-linecap: butt; stroke: rgb(231, 231, 231);"/><line x1="0" x2="589.3870964050293" y1="0" y2="0" transform="translate(0, 93)" style="fill: none; stroke-width: 1; stroke-linejoin: miter; stroke-linecap: butt; stroke: rgb(231, 231, 231);"/><line x1="0" x2="589.3870964050293" y1="0" y2="0" transform="translate(0, 124)" style="fill: none; stroke-width: 1; stroke-linejoin: miter; stroke-linecap: butt; stroke: rgb(231, 231, 231);"/><line x1="0" x2="589.3870964050293" y1="0" y2="0" transform="translate(0, 155)" style="fill: none; stroke-width: 1; stroke-linejoin: miter; stroke-linecap: butt; stroke: rgb(231, 231, 231);"/><line x1="0" x2="589.3870964050293" y1="0" y2="0" transform="translate(0, 186)" style="fill: none; stroke-width: 1; stroke-linejoin: miter; stroke-linecap: butt; stroke: rgb(231, 231, 231);"/><line x1="0" x2="589.3870964050293" y1="0" y2="0" transform="translate(0, 217)" style="fill: none; stroke-width: 1; stroke-linejoin: miter; stroke-linecap: butt; stroke: rgb(231, 231, 231);"/></g></g><g id="lines-svg"><g id="Republican-svg"><path d="M58.85130485672059,182.9L580.5357915524415,207.70000000000002" stroke="rgb(199,30,29)" id="Republican" style="fill: none; stroke-width: 2; stroke-linejoin: round; stroke-linecap: round; stroke: rgb(199, 30, 29);"/></g><g id="Democrat-svg"><path d="M58.85130485672059,40.3L580.5357915524415,65.1" stroke="rgb(31,109,156)" id="Democrat" style="fill: none; stroke-width: 2; stroke-linejoin: round; stroke-linecap: round; stroke: rgb(31, 109, 156);"/></g></g><g id="line-symbols-svg"><path d="M1,0A1,1,0,1,1,-1,0A1,1,0,1,1,1,0" id="Republican" transform="translate(58.8513, 182.9) scale(3.5)" style="fill: rgb(199, 30, 29);"/><path d="M1,0A1,1,0,1,1,-1,0A1,1,0,1,1,1,0" id="Republican" transform="translate(580.53579, 207.7) scale(3.5)" style="fill: rgb(199, 30, 29);"/><path d="M1,0A1,1,0,1,1,-1,0A1,1,0,1,1,1,0" id="Democrat" transform="translate(58.8513, 40.3) scale(3.5)" style="fill: rgb(31, 109, 156);"/><path d="M1,0A1,1,0,1,1,-1,0A1,1,0,1,1,1,0" id="Democrat" transform="translate(580.53579, 65.1) scale(3.5)" style="fill: rgb(31, 109, 156);"/></g><g id="x-grid-svg"><g id="x-tick-labels-svg date-axis-svg grid-x-svg datawrapper-HbxUz-63wp0p-svg" transform="translate(0, 253)"><text transform="translate(58.8513, 12) translate(-13.47656, 0) translate(13.4765625, 0)" style="text-anchor: middle;"><tspan fill="rgb(116, 116, 116)" style="font-family: Roboto; font-weight: 400; font-stretch: 100%; font-size: 12px;" x="0" dominant-baseline="auto" y="0">2019</tspan></text><text transform="translate(580.53579, 12) translate(-13.47656, 0) translate(13.4765625, 0)" style="text-anchor: middle;"><tspan fill="rgb(116, 116, 116)" style="font-family: Roboto; font-weight: 400; font-stretch: 100%; font-size: 12px;" x="0" dominant-baseline="auto" y="0">2023</tspan></text></g></g><g id="y-grid-svg"><g id="y-tick-labels-svg number-axis-svg grid-y-svg datawrapper-HbxUz-yhj5g2-svg"><text transform="translate(0, 243) translate(0, 0)"><tspan fill="rgb(162, 162, 162)" style="font-family: Roboto; font-weight: 400; font-stretch: 100%; font-size: 12px;" x="0" dominant-baseline="auto" y="0">0</tspan></text><text transform="translate(0, 212) translate(0, 0)"><tspan fill="rgb(162, 162, 162)" style="font-family: Roboto; font-weight: 400; font-stretch: 100%; font-size: 12px;" x="0" dominant-baseline="auto" y="0">10</tspan></text><text transform="translate(0, 181) translate(0, 0)"><tspan fill="rgb(162, 162, 162)" style="font-family: Roboto; font-weight: 400; font-stretch: 100%; font-size: 12px;" x="0" dominant-baseline="auto" y="0">20</tspan></text><text transform="translate(0, 150) translate(0, 0)"><tspan fill="rgb(162, 162, 162)" style="font-family: Roboto; font-weight: 400; font-stretch: 100%; font-size: 12px;" x="0" dominant-baseline="auto" y="0">30</tspan></text><text transform="translate(0, 119) translate(0, 0)"><tspan fill="rgb(162, 162, 162)" style="font-family: Roboto; font-weight: 400; font-stretch: 100%; font-size: 12px;" x="0" dominant-baseline="auto" y="0">40</tspan></text><text transform="translate(0, 88) translate(0, 0)"><tspan fill="rgb(162, 162, 162)" style="font-family: Roboto; font-weight: 400; font-stretch: 100%; font-size: 12px;" x="0" dominant-baseline="auto" y="0">50</tspan></text><text transform="translate(0, 57) translate(0, 0)"><tspan fill="rgb(162, 162, 162)" style="font-family: Roboto; font-weight: 400; font-stretch: 100%; font-size: 12px;" x="0" dominant-baseline="auto" y="0">60</tspan></text><text transform="translate(0, 26) translate(0, 0)"><tspan fill="rgb(162, 162, 162)" style="font-family: Roboto; font-weight: 400; font-stretch: 100%; font-size: 12px;" x="0" dominant-baseline="auto" y="0">70</tspan></text><text transform="translate(0, -5) translate(0, 0)"><tspan fill="rgb(162, 162, 162)" style="font-family: Roboto; font-weight: 400; font-stretch: 100%; font-size: 12px;" x="0" dominant-baseline="auto" y="0">80</tspan></text></g><g id="y-base-lines-svg grid-y-svg datawrapper-HbxUz-1io9s9d-svg"><line x1="589.3870964050293" x2="0" y1="0" y2="0" transform="translate(0, 248)" style="fill: none; stroke-width: 1; stroke-linejoin: miter; stroke-linecap: square; stroke: rgb(24, 24, 24);"/></g></g></g></g><g id="Democrat-svg" clip-path="url(#rect-mask-85QG27r5-7hgKanADUvp3)" transform="translate(0, 79)"><clipPath id="rect-mask-85QG27r5-7hgKanADUvp3"><rect x="0" y="0" width="16" height="20"/></clipPath><path d="M1,10 L15,10" stroke="rgb(31,109,156)" id="Democrat" style="fill: none; stroke-width: 2; stroke-linejoin: round; stroke-linecap: round; stroke: rgb(31, 109, 156);"/></g><text transform="translate(20, 81.78125)" id="Democrat"><tspan fill="rgb(24,24,24)" x="0" y="12.828125" style="font-family: Roboto; font-weight: 400; font-stretch: 100%; font-size: 12px;">Democrat</tspan></text><g id="Republican-svg" clip-path="url(#rect-mask-ZeCgrzlxX0mvzsLqVarOi)" transform="translate(80.15625, 79)"><clipPath id="rect-mask-ZeCgrzlxX0mvzsLqVarOi"><rect x="0" y="0" width="16" height="20"/></clipPath><path d="M1,10 L15,10" stroke="rgb(199,30,29)" id="Republican" style="fill: none; stroke-width: 2; stroke-linejoin: round; stroke-linecap: round; stroke: rgb(199, 30, 29);"/></g><text transform="translate(100.15625, 81.78125)" id="Republican"><tspan fill="rgb(24,24,24)" x="0" y="12.828125" style="font-family: Roboto; font-weight: 400; font-stretch: 100%; font-size: 12px;">Republican</tspan></text><text transform="translate(571, 200)"><tspan fill="rgb(21,96,122)" x="0" y="12" style="font-family: Roboto; font-weight: 400; font-stretch: 100%; font-size: 12px;">59</tspan></text><text transform="translate(572, 341)"><tspan fill="rgb(199,30,29)" x="0" y="12" style="font-family: Roboto; font-weight: 400; font-stretch: 100%; font-size: 12px;">13</tspan></text><text transform="translate(50, 173)"><tspan fill="rgb(21,96,122)" x="0" y="12" style="font-family: Roboto; font-weight: 400; font-stretch: 100%; font-size: 12px;">67</tspan></text><text transform="translate(51, 318)"><tspan fill="rgb(199,30,29)" x="0" y="12" style="font-family: Roboto; font-weight: 400; font-stretch: 100%; font-size: 12px;">21</tspan></text><g id="tooltip-layer-svg" clip-path="url(#rect-mask-vY1TgZpHGe8JQhDQN7AYG)" transform="translate(0, 79)"><clipPath id="rect-mask-vY1TgZpHGe8JQhDQN7AYG"><rect x="0" y="0" width="596" height="317"/></clipPath><g id="group-svg" transform="translate(0, 49)"/></g></g><text transform="translate(0, 416)"><tspan fill="rgb(136,136,136)" x="0" y="11" style="font-family: Roboto; font-weight: 400; font-stretch: 100%; font-size: 11px;">Source:</tspan><tspan fill="rgb(136,136,136)" dx="2.734375" style="font-family: Roboto; font-weight: 400; font-stretch: 100%; font-size: 11px;">Pew Research Center</tspan><tspan fill="rgb(136,136,136)" dx="2.739" style="font-family: Roboto; font-weight: 400; font-stretch: 100%; font-size: 11px;">•</tspan><tspan fill="rgb(136,136,136)" dx="2.739" style="font-family: Roboto; font-weight: 400; font-stretch: 100%; font-size: 11px;">Created with</tspan><tspan fill="rgb(136,136,136)" dx="2.734375" style="font-family: Roboto; font-weight: 400; font-stretch: 100%; font-size: 11px;">Datawrapper</tspan></text></g></g></svg>